<?xml version="1.0" encoding="UTF-8" standalone="no"?>
<!DOCTYPE svg PUBLIC "-//W3C//DTD SVG 1.1//EN" "http://www.w3.org/Graphics/SVG/1.1/DTD/svg11.dtd">
<svg xmlns="http://www.w3.org/2000/svg" version="1.1" viewBox="0 0 131 143" width="131.0pt" height="143.0pt">
<path d="M 63.12 38.70 C 66.20 42.33 67.01 46.87 68.56 51.28 C 70.31 56.44 72.31 61.80 76.52 65.49 C 83.28 71.62 92.56 69.28 99.09 76.09 C 95.88 80.28 91.43 80.20 86.72 81.49 C 81.13 82.74 76.03 84.83 72.63 89.66 C 67.50 97.09 69.08 106.23 63.91 114.03 C 62.51 113.48 61.56 113.51 61.10 111.84 C 58.77 105.28 59.23 97.93 55.32 91.55 C 52.60 87.21 46.97 84.54 42.40 82.63 C 36.90 80.27 31.46 80.42 27.25 76.00 C 33.46 69.60 43.28 71.59 50.08 65.09 C 57.22 58.64 57.98 45.66 63.12 38.70 Z" fill="#f1cd8c" />
</svg>
